<svg id="visual" viewBox="0 0 5300 3000" width="5300" height="3000" xmlns="http://www.w3.org/2000/svg" xmlns:xlink="http://www.w3.org/1999/xlink" version="1.1"><rect x="0" y="0" width="5300" height="3000" fill="#fff0da"></rect><path d="M0 1577L110.5 1636.7C221 1696.3 442 1815.7 662.8 1855.2C883.7 1894.7 1104.3 1854.3 1325.2 1888.7C1546 1923 1767 2032 1987.8 2070C2208.7 2108 2429.3 2075 2650.2 2051C2871 2027 3092 2012 3312.8 2009.2C3533.7 2006.3 3754.3 2015.7 3975.2 1995.2C4196 1974.7 4417 1924.3 4637.8 1893.7C4858.7 1863 5079.3 1852 5189.7 1846.5L5300 1841L5300 3001L5189.7 3001C5079.3 3001 4858.7 3001 4637.8 3001C4417 3001 4196 3001 3975.2 3001C3754.3 3001 3533.7 3001 3312.8 3001C3092 3001 2871 3001 2650.2 3001C2429.3 3001 2208.7 3001 1987.8 3001C1767 3001 1546 3001 1325.2 3001C1104.3 3001 883.7 3001 662.8 3001C442 3001 221 3001 110.5 3001L0 3001Z" fill="#fa7268"></path><path d="M0 2237L110.5 2194.8C221 2152.7 442 2068.3 662.8 2074.2C883.7 2080 1104.3 2176 1325.2 2157C1546 2138 1767 2004 1987.8 1945.3C2208.7 1886.7 2429.3 1903.3 2650.2 1951.5C2871 1999.7 3092 2079.3 3312.8 2093.2C3533.7 2107 3754.3 2055 3975.2 2083.3C4196 2111.7 4417 2220.3 4637.8 2247C4858.7 2273.7 5079.3 2218.3 5189.7 2190.7L5300 2163L5300 3001L5189.7 3001C5079.3 3001 4858.7 3001 4637.8 3001C4417 3001 4196 3001 3975.2 3001C3754.3 3001 3533.7 3001 3312.8 3001C3092 3001 2871 3001 2650.2 3001C2429.3 3001 2208.7 3001 1987.8 3001C1767 3001 1546 3001 1325.2 3001C1104.3 3001 883.7 3001 662.8 3001C442 3001 221 3001 110.5 3001L0 3001Z" fill="#eb5967"></path><path d="M0 2312L110.5 2305.3C221 2298.7 442 2285.3 662.8 2309.3C883.7 2333.3 1104.3 2394.7 1325.2 2375.3C1546 2356 1767 2256 1987.8 2222C2208.7 2188 2429.3 2220 2650.2 2237.7C2871 2255.3 3092 2258.7 3312.8 2296C3533.7 2333.3 3754.3 2404.7 3975.2 2434.5C4196 2464.3 4417 2452.7 4637.8 2433.8C4858.7 2415 5079.3 2389 5189.7 2376L5300 2363L5300 3001L5189.7 3001C5079.3 3001 4858.7 3001 4637.8 3001C4417 3001 4196 3001 3975.2 3001C3754.3 3001 3533.7 3001 3312.8 3001C3092 3001 2871 3001 2650.2 3001C2429.3 3001 2208.7 3001 1987.8 3001C1767 3001 1546 3001 1325.2 3001C1104.3 3001 883.7 3001 662.8 3001C442 3001 221 3001 110.5 3001L0 3001Z" fill="#da3f67"></path><path d="M0 2624L110.5 2620.8C221 2617.7 442 2611.3 662.8 2590C883.7 2568.7 1104.3 2532.3 1325.2 2547.2C1546 2562 1767 2628 1987.8 2631.8C2208.7 2635.7 2429.3 2577.3 2650.2 2597.8C2871 2618.3 3092 2717.7 3312.8 2747.8C3533.7 2778 3754.3 2739 3975.2 2685.8C4196 2632.7 4417 2565.3 4637.8 2526.5C4858.7 2487.7 5079.3 2477.3 5189.7 2472.2L5300 2467L5300 3001L5189.7 3001C5079.3 3001 4858.7 3001 4637.8 3001C4417 3001 4196 3001 3975.2 3001C3754.3 3001 3533.7 3001 3312.8 3001C3092 3001 2871 3001 2650.2 3001C2429.3 3001 2208.7 3001 1987.8 3001C1767 3001 1546 3001 1325.2 3001C1104.3 3001 883.7 3001 662.8 3001C442 3001 221 3001 110.5 3001L0 3001Z" fill="#c62368"></path></svg>